<svg width="350" height="268" viewBox="0 0 350 268" fill="none" xmlns="http://www.w3.org/2000/svg">
<path d="M350 54.4877L187.963 164.76L187.967 164.766L178.89 170.899L169.815 165.072L154.907 155.362L154.908 155.401L0 49.9871V34.9565C0 15.6506 15.67 0 35 0H315C334.33 0 350 15.6506 350 34.9565V54.4877Z" fill="#FF5D73"/>
<path d="M209.771 178.669L210 178.667L177.617 200.176L147.778 179.314L147.801 179.314L0 78.7365V233.043C0 252.349 15.67 268 35 268H315C334.33 268 350 252.349 350 233.043V83.2378L209.771 178.669Z" fill="#FF5D73"/>
</svg>
