<svg width="380" height="380" viewBox="0 0 380 380" fill="none" xmlns="http://www.w3.org/2000/svg">
<path d="M161 338.732V3.21228C170.453 1.75572 180.138 1 190 1C294.381 1 379 85.6713 379 190.12C379 289.943 301.71 371.702 203.746 378.747L297.505 323.843L298 323.554V322.98V260.252V258.508L296.495 259.389L161 338.732ZM290 41.0259V39.3855L288.542 40.137L189.542 91.1629L188.567 91.6652L189.157 92.5896L189.308 92.8267L189.305 262.211L189.305 262.215L189.216 285.011L189.209 286.719L190.702 285.889L229.81 264.135L229.837 264.181L230.705 263.683L233.342 262.17L233.353 262.164L233.794 261.919L233.793 261.912L296.498 225.929L297 225.641V225.062V178.922V177.195L295.502 178.054L231.308 214.892V119.764L289.458 89.7929L290 89.5136V88.904V41.0259ZM1 190.12C1 115.073 44.6842 50.2345 108 19.6783V360.562C44.6842 330.005 1 265.167 1 190.12Z" fill="#FF5D73" stroke="white" stroke-width="2"/>
</svg>
