<svg width="384" height="384" viewBox="0 0 384 384" fill="none" xmlns="http://www.w3.org/2000/svg">
<path d="M201.122 381.137L201.677 382.999C302.668 377.955 383 294.425 383 192.12C383 86.5679 297.487 1 192 1C181.739 1 171.667 1.80969 161.843 3.36888L161 3.50272V4.35652V342.477V344.221L162.505 343.34L298 263.996V324.407L201.122 381.137ZM112 20.0928V18.5146L110.573 19.1885C45.8137 49.7728 1 115.709 1 192.12C1 268.531 45.8137 334.467 110.573 365.051L112 365.725V364.147V20.0928ZM234.796 262.178L234.798 262.184L234.369 262.423L234.358 262.429L232.578 263.451L232.564 263.427L231.701 263.907L193.223 285.31L193.301 265.195L193.308 265.195V264.215V94.5349V94.5024L290 44.6663V90.2944L231.85 120.266L231.308 120.545V121.154V218.618V220.345L232.806 219.486L297 182.649V226.483L234.796 262.178Z" fill="#FF5D73" stroke="white" stroke-width="2"/>
</svg>
