<svg width="32" height="32" viewBox="0 0 32 32" fill="none" xmlns="http://www.w3.org/2000/svg">
<path fill-rule="evenodd" clip-rule="evenodd" d="M16.8107 32C25.2706 31.5775 32 24.5802 32 16.0101C32 7.16796 24.8366 0 16 0C15.1404 0 14.2966 0.0678338 13.4737 0.198444V28.6717L25.0105 21.916V27.1983L16.8107 32ZM16 7.75173L24.3368 3.45481V7.48666L19.3944 10.0341V18.2415L24.9263 15.0671V18.9526L19.6458 21.9827L19.647 21.9827L19.6089 22.0039L19.3859 22.1319L19.3842 22.1289L16.0182 24.0012L16.0257 22.0813L16.026 7.79241L16 7.75173Z" fill="#FF5D73"/>
<path d="M9.17895 1.5236C3.7539 4.08572 0 9.60925 0 16.0101C0 22.411 3.7539 27.9345 9.17895 30.4966V1.5236Z" fill="#FF5D73"/>
</svg>
